HIERARCHY
ROOT joint_0
{
	OFFSET 0.000000 0.000000 0.000000
	CHANNELS 6 Xposition Yposition Zposition Zrotation Yrotation Xrotation 
	JOINT joint_1
	{
		OFFSET 0.000000 0.000000 0.000000
		CHANNELS 3 Zrotation Yrotation Xrotation
		JOINT joint_2
		{
			OFFSET 3.811170 -8.520760 0.839290
			CHANNELS 3 Zrotation Yrotation Xrotation
			JOINT joint_3
			{
				OFFSET 2.562200 -7.039590 0.000000
				CHANNELS 3 Zrotation Yrotation Xrotation
				JOINT joint_4
				{
					OFFSET 0.157640 -0.433110 2.322550
					CHANNELS 3 Zrotation Yrotation Xrotation
					End Site
					{
						OFFSET 0.000000 0.000000 0.000000
					}
				}
			}
		}
	}
	JOINT joint_5
	{
		OFFSET 0.000000 0.000000 0.000000
		CHANNELS 3 Zrotation Yrotation Xrotation
		JOINT joint_6
		{
			OFFSET -3.848050 -8.780180 0.839290
			CHANNELS 3 Zrotation Yrotation Xrotation
			JOINT joint_7
			{
				OFFSET -2.568260 -7.056230 0.000000
				CHANNELS 3 Zrotation Yrotation Xrotation
				JOINT joint_8
				{
					OFFSET -0.164730 -0.452590 2.363150
					CHANNELS 3 Zrotation Yrotation Xrotation
					End Site
					{
						OFFSET 0.000000 0.000000 0.000000
					}
				}
			}
		}
	}
	JOINT joint_9
	{
		OFFSET 0.028270 2.035590 -0.193380
		CHANNELS 3 Zrotation Yrotation Xrotation
		JOINT joint_10
		{
			OFFSET 0.056720 2.048850 -0.042750
			CHANNELS 3 Zrotation Yrotation Xrotation
			JOINT joint_11
			{
				OFFSET -0.054170 1.746240 0.172020
				CHANNELS 3 Zrotation Yrotation Xrotation
				JOINT joint_12
				{
					OFFSET 0.104070 1.761360 -0.123970
					CHANNELS 3 Zrotation Yrotation Xrotation
					End Site
					{
						OFFSET 0.000000 0.000000 0.000000
					}
				}
			}
			JOINT joint_13
			{
				OFFSET 3.362410 1.200890 -0.311210
				CHANNELS 3 Zrotation Yrotation Xrotation
				JOINT joint_14
				{
					OFFSET 4.983000 -0.000000 -0.000000
					CHANNELS 3 Zrotation Yrotation Xrotation
					JOINT joint_15
					{
						OFFSET 3.483560 -0.000000 -0.000000
						CHANNELS 3 Zrotation Yrotation Xrotation
						JOINT joint_16
						{
							OFFSET 0.715260 -0.000000 -0.000000
							CHANNELS 3 Zrotation Yrotation Xrotation
							End Site
							{
								OFFSET 0.000000 0.000000 0.000000
							}
						}
					}
				}
			}
			JOINT joint_17
			{
				OFFSET -3.136600 1.374050 -0.404650
				CHANNELS 3 Zrotation Yrotation Xrotation
				JOINT joint_18
				{
					OFFSET -5.241900 -0.000000 -0.000000
					CHANNELS 3 Zrotation Yrotation Xrotation
					JOINT joint_19
					{
						OFFSET -3.444170 -0.000000 -0.000000
						CHANNELS 3 Zrotation Yrotation Xrotation
						JOINT joint_20
						{
							OFFSET -0.622530 -0.000000 -0.000000
							CHANNELS 3 Zrotation Yrotation Xrotation
							End Site
							{
								OFFSET 0.000000 0.000000 0.000000
							}
						}
					}
				}
			}
		}
	}
}
MOTION
Frames: 6
Frame Time: 0.031667
4.847296 15.567984 -2.364512 -5.013435 -25.555210 3.808602 -14.113628 24.014119 -28.423689 -9.577650 20.769375 16.601965 -1.138746 7.966140 -16.361758 3.403032 -3.672261 -4.660552 -2.248745 -4.569977 8.315193 22.178910 -25.301728 33.044202 -3.108765 3.457607 -18.670334 4.665498 -4.892294 3.916398 -1.187583 -4.790256 -4.810938 -0.251574 -5.092805 -12.797911 -2.988161 -2.681163 -1.586867 7.999299 -7.127697 8.096676 -38.852466 -40.946402 10.651218 72.997072 -67.195600 0.459399 6.375438 -0.938375 8.622219 -8.228459 -9.598032 -3.276425 96.345301 23.961661 44.575953 -89.052162 57.625676 6.562632 -6.713997 6.021421 -3.564364 -1.300224 3.563465 3.509852 
4.817107 15.564921 -2.375835 -4.960369 -25.233309 3.832239 0.317827 19.402058 -21.278153 -0.870128 12.534104 24.415288 2.552930 13.805785 -6.492578 -2.422799 -0.853514 5.563562 -4.943544 -22.986416 12.621402 34.547938 -7.370431 31.542581 -7.978955 2.273529 -16.662055 -6.869282 -7.145429 -9.092941 0.481849 -8.042600 -12.645849 -3.213645 6.018081 -7.875317 -7.832247 7.759408 8.704431 -9.842195 -5.071934 4.202430 -34.067725 -34.798594 6.119215 62.168738 -62.178132 9.446368 -7.998337 8.320901 -8.386121 -1.188890 -8.081137 0.409521 108.244968 21.904109 49.730572 -86.623537 64.505893 -7.803208 0.003124 -3.657180 6.586021 -1.329120 9.761156 3.057228 
4.786918 15.561857 -2.387158 -4.907456 -24.911741 3.856510 -1.646587 26.163314 -27.493631 -1.403097 10.765660 26.911680 -10.780568 0.536822 -10.573891 6.804764 2.663825 4.098335 -8.364165 -20.147914 12.935517 32.253732 -19.644083 33.805742 -1.042287 -2.355416 -17.901611 -2.391045 3.442301 -8.761801 -3.630112 4.910370 -6.631716 8.019660 0.375036 -7.845549 5.207589 8.532852 -8.998465 7.205369 -4.992193 3.263972 -33.685930 -37.576067 11.760762 80.738025 -70.748833 -3.983127 -5.291237 -0.015826 -0.410425 -7.240620 1.304958 7.384037 98.613362 32.570425 32.838491 -82.245398 70.289432 8.456933 3.481294 -8.508407 -8.406605 -5.626398 -7.993915 -9.137029 
4.756367 15.558990 -2.397638 -4.866138 -24.549143 3.883723 -0.696734 27.936171 -21.077061 -0.800209 20.882268 22.943275 -9.659397 5.325528 -17.617631 3.673931 3.810083 -9.301968 -13.119745 -14.533082 2.231241 30.408793 -10.908800 22.899516 -2.600690 6.757202 -5.134117 1.533202 9.050734 -4.246648 6.279104 11.375833 1.016802 4.037437 -9.373529 -7.903952 -7.985486 -2.305086 1.286940 -4.077137 7.926674 2.679213 -40.633297 -35.291021 -2.049288 78.697135 -69.733153 3.214272 -9.977345 2.663425 -4.979817 -0.724848 -2.715909 -7.608956 98.642673 26.626269 30.677261 -93.510798 57.225119 -1.716920 8.753794 -5.627200 -9.559916 -4.059139 -6.233413 -8.414876 
4.725811 15.556126 -2.408110 -4.825040 -24.186731 3.911492 -2.029771 26.127664 -33.013020 -0.054592 19.860029 19.390814 -0.543366 -1.856972 -16.562425 9.594656 2.071168 9.955183 -6.225423 -24.185997 8.864713 28.503739 -10.541156 31.625819 -8.370230 -6.659434 -12.896158 -6.426959 1.345213 -1.691207 0.524667 1.171879 1.972873 4.741707 -6.512471 -13.168118 2.350385 2.304687 5.424157 -2.997358 -5.322216 1.177888 -33.296259 -35.844100 10.342431 67.059689 -56.865927 -4.178877 -0.725577 -9.907695 -1.887306 8.630573 7.921272 -6.751714 98.831317 25.328035 43.928261 -93.023176 68.251573 -7.630271 -0.011006 -2.497420 5.657572 -5.019688 9.053991 -6.568643 
4.695186 15.553324 -2.417671 -4.793570 -23.777342 3.938570 -6.928630 25.672073 -36.823960 -16.767504 23.288673 30.283846 -2.688183 -3.934799 -19.339618 5.968285 7.090915 -0.190208 -4.406504 -14.394146 13.412482 30.718787 -26.840805 21.403871 2.678082 -1.803135 -16.865945 -5.084570 -7.074750 -3.474989 -4.863069 -5.725297 -1.090262 2.832944 3.262282 -5.866926 -6.668953 -3.193404 -3.008488 -9.752609 -3.908268 -8.307438 -47.431948 -35.271147 13.733391 65.631595 -57.807458 -2.371272 -9.209768 5.887024 4.389894 4.129139 2.257494 -2.131640 104.571313 23.387049 43.131863 -87.951135 75.286682 -8.807820 7.935634 9.500552 -6.434318 -6.909016 4.605462 -1.710837 
